<?xml version="1.0" standalone="no"?>
<svg
  width="600"
  height="600"
  viewBox="0 0 600 600"
  xmlns="http://www.w3.org/2000/svg"
>
  <g transform="translate(300,300)">
    <path d="M82.6,-64.4C131.3,-57.5,211.9,-54.6,216.4,-37C221,-19.4,149.5,12.8,111.3,50.5C73.2,88.3,68.4,131.5,44.7,153.5C21,175.4,-21.7,176,-47.7,155.8C-73.8,135.6,-83.2,94.6,-91.4,61.8C-99.5,29,-106.4,4.5,-98.7,-13.6C-90.9,-31.7,-68.6,-43.4,-49.7,-55.6C-30.9,-67.8,-15.4,-80.4,0.7,-81.3C16.9,-82.2,33.9,-71.3,82.6,-64.4Z" fill="#8ed1fc" />
  </g>
</svg>
    