<?xml version="1.0" standalone="no"?>
<svg
  width="600"
  height="600"
  viewBox="0 0 600 600"
  xmlns="http://www.w3.org/2000/svg"
>
  <g transform="translate(300,300)">
    <path d="M139.1,-188.4C165,-144,160.3,-85.7,166.1,-32.3C171.9,21,188.1,69.5,168.6,91.8C149.1,114.1,93.9,110.1,52.4,111C10.8,111.8,-17,117.5,-64,123.2C-111,128.9,-177.2,134.7,-183.8,111.7C-190.5,88.7,-137.6,36.9,-128.4,-23.9C-119.2,-84.8,-153.8,-154.6,-139.7,-201.1C-125.6,-247.6,-62.8,-270.8,-3.1,-267.1C56.6,-263.4,113.1,-232.8,139.1,-188.4Z" fill="#0693e3" />
  </g>
</svg>
    