<?xml version="1.0" standalone="no"?>
<svg
  width="600"
  height="600"
  viewBox="0 0 600 600"
  xmlns="http://www.w3.org/2000/svg"
>
  <g transform="translate(300,300)">
    <path d="M106.9,-163.3C131.6,-150.4,139.9,-109.1,159.1,-71.4C178.4,-33.7,208.5,0.3,188.7,15.8C168.9,31.4,99.2,28.5,63,34.9C26.8,41.3,24.1,57.1,10.2,83.4C-3.7,109.7,-28.7,146.5,-41.9,142.6C-55,138.8,-56.2,94.3,-93.3,70.3C-130.3,46.4,-203.3,43.1,-210.7,27C-218.1,11,-160,-17.8,-130.7,-50.5C-101.4,-83.2,-101,-119.8,-84,-136.2C-67,-152.6,-33.5,-148.8,3.8,-154.7C41.1,-160.6,82.2,-176.2,106.9,-163.3Z" fill="#8ed1fc" />
  </g>
</svg>
    