<?xml version="1.0" standalone="no"?>
<svg
  width="600"
  height="600"
  viewBox="0 0 600 600"
  xmlns="http://www.w3.org/2000/svg"
>
  <g transform="translate(300,300)">
    <path d="M71.1,-86.4C113.7,-83.2,184.6,-100,225.2,-82C265.8,-64.1,275.9,-11.5,256.1,27.7C236.3,66.9,186.5,92.7,151.9,130.3C117.3,167.9,97.8,217.3,63,238.5C28.2,259.7,-22,252.7,-44.5,216.4C-67,180.1,-61.8,114.6,-98.8,80.7C-135.8,46.8,-214.9,44.5,-237.6,21.7C-260.3,-1.2,-226.6,-44.6,-177.9,-52.2C-129.3,-59.8,-65.7,-31.6,-33.6,-39.6C-1.4,-47.6,-0.7,-91.8,6.8,-102.3C14.2,-112.8,28.5,-89.6,71.1,-86.4Z" fill="#eb144c" />
  </g>
</svg>
    