<?xml version="1.0" standalone="no"?>
<svg
  width="600"
  height="600"
  viewBox="0 0 600 600"
  xmlns="http://www.w3.org/2000/svg"
>
  <g transform="translate(300,300)">
    <path d="M71,-119.4C100.8,-91.2,140,-86.5,143.3,-68.6C146.5,-50.7,113.8,-19.5,108.2,15.1C102.5,49.7,123.8,87.7,116.2,105.9C108.6,124.1,72,122.5,36.6,139.9C1.1,157.4,-33.2,193.8,-73,203C-112.8,212.2,-158.1,194.2,-190.7,162.1C-223.3,130.1,-243.3,84,-239,41.1C-234.7,-1.8,-206,-41.4,-163.5,-49.8C-121,-58.2,-64.5,-35.4,-35,-63.7C-5.4,-92.1,-2.7,-171.5,8.9,-185.4C20.5,-199.3,41.1,-147.6,71,-119.4Z" fill="#0693e3" />
  </g>
</svg>
    