<svg viewBox="0 -56 512 512" xmlns="http://www.w3.org/2000/svg"><path d="m481.5 0h-451c-16.816406 0-30.5 13.683594-30.5 30.5v339c0 16.816406 13.683594 30.5 30.5 30.5h451c16.816406 0 30.5-13.683594 30.5-30.5v-339c0-16.816406-13.683594-30.5-30.5-30.5zm10.5 369.5c0 5.789062-4.710938 10.5-10.5 10.5h-451c-5.789062 0-10.5-4.710938-10.5-10.5v-339c0-5.789062 4.710938-10.5 10.5-10.5h451c5.789062 0 10.5 4.710938 10.5 10.5zm0 0"/><path d="m191 69.332031h258c5.523438 0 10-4.476562 10-10 0-5.519531-4.476562-10-10-10h-258c-5.523438 0-10 4.480469-10 10 0 5.523438 4.476562 10 10 10zm0 0"/><path d="m51.101562 63.160156c.25.601563.558594 1.179688.917969 1.71875.359375.550782.78125 1.0625 1.242188 1.519532 1.859375 1.871093 4.4375 2.933593 7.066406 2.933593.660156 0 1.3125-.0625 1.960937-.191406.640626-.128906 1.269532-.320313 1.871094-.570313.601563-.25 1.179688-.558593 1.71875-.917968.550782-.371094 1.0625-.792969 1.519532-1.25.472656-.460938.882812-.972656 1.25-1.519532.363281-.542968.671874-1.121093.921874-1.722656.25-.609375.441407-1.238281.570313-1.871094.128906-.648437.1875-1.308593.1875-1.957031 0-.652343-.058594-1.3125-.1875-1.949219-.128906-.640624-.320313-1.273437-.570313-1.871093-.25-.609375-.558593-1.191407-.921874-1.730469-.367188-.550781-.777344-1.058594-1.25-1.519531-.457032-.460938-.96875-.878907-1.519532-1.242188-.539062-.359375-1.117187-.667969-1.71875-.917969-.601562-.25-1.230468-.441406-1.871094-.570312-1.289062-.261719-2.617187-.261719-3.910156 0-.640625.128906-1.269531.320312-1.867187.570312-.613281.25-1.191407.558594-1.730469.917969-.550781.363281-1.0625.78125-1.519531 1.242188-.460938.460937-.882813.96875-1.242188 1.519531-.359375.539062-.667969 1.121094-.917969 1.730469-.25.597656-.441406 1.230469-.570312 1.871093-.132812.636719-.203125 1.296876-.203125 1.949219 0 .648438.070313 1.308594.203125 1.957031.128906.632813.320312 1.261719.570312 1.871094zm0 0"/><path d="m91.101562 63.160156c.25.601563.558594 1.179688.917969 1.71875.359375.550782.78125 1.0625 1.242188 1.519532 1.859375 1.871093 4.4375 2.933593 7.066406 2.933593.660156 0 1.3125-.0625 1.960937-.191406.640626-.128906 1.269532-.320313 1.871094-.570313.601563-.25 1.179688-.558593 1.71875-.917968.550782-.371094 1.0625-.792969 1.53125-1.25.460938-.460938.871094-.972656 1.238282-1.519532.363281-.542968.671874-1.121093.921874-1.722656.25-.609375.441407-1.238281.570313-1.871094.128906-.648437.1875-1.308593.1875-1.957031 0-.652343-.058594-1.3125-.1875-1.949219-.128906-.640624-.320313-1.273437-.570313-1.871093-.25-.609375-.558593-1.191407-.921874-1.730469-.367188-.550781-.777344-1.058594-1.238282-1.519531-.46875-.460938-.980468-.878907-1.53125-1.242188-.539062-.359375-1.117187-.667969-1.71875-.917969-.601562-.25-1.230468-.441406-1.871094-.570312-1.289062-.261719-2.617187-.261719-3.910156 0-.640625.128906-1.269531.320312-1.867187.570312-.613281.25-1.191407.558594-1.730469.917969-.550781.363281-1.0625.78125-1.519531 1.242188-.460938.460937-.882813.96875-1.242188 1.519531-.359375.539062-.667969 1.121094-.917969 1.730469-.25.597656-.441406 1.230469-.570312 1.871093-.132812.636719-.203125 1.296876-.203125 1.949219 0 .648438.070313 1.308594.203125 1.957031.128906.632813.320312 1.261719.570312 1.871094zm0 0"/><path d="m131.101562 63.160156c.25.601563.558594 1.179688.917969 1.71875.359375.550782.78125 1.0625 1.242188 1.519532.457031.460937.96875.882812 1.519531 1.25.539062.363281 1.117188.671874 1.730469.921874.597656.25 1.226562.441407 1.867187.570313s1.300782.1875 1.949219.1875c.660156 0 1.3125-.058594 1.960937-.1875.640626-.128906 1.269532-.320313 1.871094-.570313.601563-.25 1.179688-.558593 1.730469-.921874.539063-.367188 1.050781-.789063 1.519531-1.25.460938-.457032.871094-.96875 1.238282-1.519532.363281-.539062.671874-1.117187.921874-1.71875.25-.609375.441407-1.238281.570313-1.871094.128906-.648437.1875-1.308593.1875-1.960937 0-.648437-.058594-1.308594-.1875-1.949219s-.320313-1.269531-.570313-1.867187c-.25-.613281-.558593-1.191407-.921874-1.730469-.367188-.550781-.777344-1.0625-1.238282-1.519531-.46875-.460938-.980468-.882813-1.519531-1.242188-.550781-.359375-1.128906-.667969-1.730469-.917969-.601562-.25-1.230468-.441406-1.871094-.570312-1.289062-.261719-2.617187-.261719-3.910156 0-.640625.128906-1.269531.320312-1.867187.570312-.613281.25-1.191407.558594-1.730469.917969-.550781.359375-1.0625.78125-1.519531 1.242188-.460938.457031-.882813.96875-1.242188 1.519531-.359375.539062-.667969 1.117188-.917969 1.730469-.25.597656-.441406 1.226562-.570312 1.867187-.132812.640625-.203125 1.300782-.203125 1.949219 0 .652344.070313 1.3125.203125 1.960937.128906.632813.320312 1.261719.570312 1.871094zm0 0"/><path d="m290.757812 171.058594c-4.753906-2.8125-10.886718-1.234375-13.699218 3.519531l-59.332032 100.332031c-2.8125 4.753906-1.238281 10.886719 3.515626 13.695313 1.597656.945312 3.351562 1.398437 5.082031 1.398437 3.417969 0 6.75-1.757812 8.617187-4.914062l59.332032-100.332032c2.8125-4.753906 1.238281-10.886718-3.515626-13.699218zm0 0"/><path d="m166.105469 200.449219v-10.097657c0-5.589843 4.546875-10.140624 10.136719-10.140624h.140624c5.523438 0 10-4.476563 10-10 0-5.519532-4.476562-10-10-10h-.140624c-16.617188 0-30.136719 13.523437-30.136719 30.140624v10.097657c0 3.636719-1.492188 7.183593-4.09375 9.726562l-12.957031 12.675781c-1.910157 1.867188-2.992188 4.421876-3.007813 7.09375-.011719 2.671876 1.042969 5.238282 2.933594 7.128907l13.203125 13.199219c2.546875 2.542968 3.960937 5.925781 3.988281 9.527343l.070313 10.480469c.117187 16.503906 13.636718 29.933594 30.140624 29.933594 5.523438 0 10-4.480469 10-10 0-5.523438-4.476562-10-10-10-5.554687 0-10.101562-4.519532-10.140624-10.070313l-.070313-10.480469c-.0625-8.894531-3.5625-17.253906-9.847656-23.535156l-6.054688-6.050781 5.730469-5.605469c6.421875-6.285156 10.105469-15.039062 10.105469-24.023437zm0 0"/><path d="m345.894531 259.976562v10.097657c0 5.589843-4.546875 10.140625-10.136719 10.140625h-.140624c-5.523438 0-10 4.476562-10 10 0 5.519531 4.476562 10 10 10h.140624c16.617188 0 30.136719-13.523438 30.136719-30.140625v-10.097657c0-3.636718 1.492188-7.183593 4.09375-9.726562l12.957031-12.675781c1.910157-1.867188 2.992188-4.421875 3.003907-7.09375.015625-2.671875-1.039063-5.238281-2.929688-7.128907l-13.203125-13.199218c-2.546875-2.542969-3.964844-5.929688-3.988281-9.527344l-.074219-10.480469c-.113281-16.503906-13.632812-29.929687-30.136718-29.929687-5.523438 0-10 4.476562-10 10 0 5.519531 4.476562 10 10 10 5.550781 0 10.101562 4.515625 10.136718 10.066406l.074219 10.480469c.0625 8.890625 3.558594 17.25 9.847656 23.535156l6.054688 6.050781-5.730469 5.605469c-6.421875 6.28125-10.105469 15.039063-10.105469 24.023437zm0 0"/><path d="m461.367188 99.332031h-410.734376c-5.523437 0-10 4.480469-10 10v240c0 5.523438 4.476563 10 10 10h119.035157c5.523437 0 10-4.476562 10-10 0-5.519531-4.476563-10-10-10h-109.035157v-220h390.734376v220h-201.367188c-5.523438 0-10 4.480469-10 10 0 5.523438 4.476562 10 10 10h211.367188c5.523437 0 10-4.476562 10-10v-240c0-5.519531-4.476563-10-10-10zm0 0"/><path d="m219.230469 344.171875c-.25-.601563-.558594-1.183594-.921875-1.722656-.359375-.550781-.777344-1.058594-1.238282-1.519531-.460937-.460938-.96875-.878907-1.519531-1.242188-.539062-.359375-1.121093-.667969-1.722656-.917969-.609375-.25-1.238281-.449219-1.867187-.582031-1.289063-.25-2.621094-.25-3.910157 0-.640625.132812-1.269531.332031-1.878906.582031-.601563.25-1.183594.558594-1.722656.917969-.550781.363281-1.058594.78125-1.519531 1.242188-.460938.460937-.878907.96875-1.238282 1.519531-.363281.539062-.671875 1.121093-.921875 1.722656-.25.609375-.449219 1.238281-.570312 1.878906-.128907.640625-.199219 1.300781-.199219 1.949219s.070312 1.308594.199219 1.949219c.121093.640625.320312 1.269531.570312 1.871093.25.609376.558594 1.1875.921875 1.730469.359375.546875.777344 1.058594 1.238282 1.519531.460937.460938.96875.878907 1.519531 1.238282.539062.359375 1.121093.671875 1.722656.921875.609375.25 1.238281.449219 1.878906.578125s1.300781.191406 1.949219.191406c2.628906 0 5.210938-1.070312 7.070312-2.933594.460938-.457031.878907-.96875 1.238282-1.519531.363281-.539063.671875-1.117187.921875-1.730469.25-.597656.449219-1.226562.578125-1.867187.132812-.640625.191406-1.300781.191406-1.949219 0-.652344-.058594-1.3125-.191406-1.949219-.128906-.640625-.328125-1.269531-.578125-1.878906zm0 0"/></svg>