<?xml version="1.0" encoding="utf-8"?>
<!-- Generator: Adobe Illustrator 22.1.0, SVG Export Plug-In . SVG Version: 6.00 Build 0)  -->
<svg version="1.1" id="Layer_1" xmlns="http://www.w3.org/2000/svg" xmlns:xlink="http://www.w3.org/1999/xlink" x="0px" y="0px"
	 viewBox="0 0 1239 825" style="enable-background:new 0 0 1239 825;" xml:space="preserve">
<style type="text/css">
	.st0{fill:url(#SVGID_1_);}
	.st1{fill:#FFD70C;}
	.st2{fill:#FFDFCE;}
	.st3{fill:url(#SVGID_2_);}
	.st4{fill:#F7D131;}
	.st5{fill:#FFD735;}
	.st6{fill:none;stroke:#F2F2F2;stroke-miterlimit:10;}
	.st7{fill:none;stroke:#F2F2F2;stroke-width:2;stroke-miterlimit:10;}
</style>
<g>
	<linearGradient id="SVGID_1_" gradientUnits="userSpaceOnUse" x1="620" y1="840.1292" x2="620" y2="-7.6514">
		<stop  offset="0.1559" style="stop-color:#FF882E"/>
		<stop  offset="1" style="stop-color:#FFD25C"/>
	</linearGradient>
	<rect y="-0.2" class="st0" width="1240" height="825.4"/>
</g>
<circle class="st1" cx="620" cy="163" r="139"/>
<path class="st2" d="M456,379H103c-6.6,0-12-5.4-12-12v-10c0-6.6,5.4-12,12-12h353c6.6,0,12,5.4,12,12v10
	C468,373.6,462.6,379,456,379z"/>
<path class="st2" d="M379,424H85c-6.6,0-12-5.4-12-12v-10c0-6.6,5.4-12,12-12h294c6.6,0,12,5.4,12,12v10
	C391,418.6,385.6,424,379,424z"/>
<path class="st2" d="M433,467H139c-6.6,0-12-5.4-12-12v-10c0-6.6,5.4-12,12-12h294c6.6,0,12,5.4,12,12v10
	C445,461.6,439.6,467,433,467z"/>
<path class="st2" d="M1185,424H891c-6.6,0-12-5.4-12-12v-10c0-6.6,5.4-12,12-12h294c6.6,0,12,5.4,12,12v10
	C1197,418.6,1191.6,424,1185,424z"/>
<linearGradient id="SVGID_2_" gradientUnits="userSpaceOnUse" x1="-89.7488" y1="596.8867" x2="1610.8772" y2="948.1525">
	<stop  offset="0.1559" style="stop-color:#FF882E"/>
	<stop  offset="1" style="stop-color:#FFD25C"/>
</linearGradient>
<polygon class="st3" points="0,661.6 1240,661.6 1239.5,825.5 0.5,825.5 "/>
<path class="st4" d="M749,729c0,7.8,30.4,20.9,26,28c-4.5,7.2-49.6,11-58,17c-8.8,6.3,33.9,9.6,22,18c-19.9,14-88.7,17-119,17
	c-26.6,0-94.6-4-116-10c-33.4-9.3,32.8-14.8,23-21c-8.5-5.4-62.7-14.5-68-21c-7-8.7,32-18,32-28c0-10-32-13-18-23
	c10.4-7.4,43.3-13.7,62-17c28-5-24.7-12.3-10-16c18.2-4.5,73.5-9,95-9c20.6,0,76.4,5.8,94,10c13.2,3.1-35,10-11,16
	c17.2,4.3,70.1,9.2,78,19C788,717.7,749,719,749,729z"/>
<path class="st5" d="M481.8,728.7"/>
<path class="st6" d="M909,713c0,0,46.5-6.5,57.5-6.5s80,10,92,10S1113,706,1113,706"/>
<path class="st6" d="M879,743c0,0,46.5-6.5,57.5-6.5s80,10,92,10S1083,736,1083,736"/>
<path class="st6" d="M119,713c0,0,46.5-6.5,57.5-6.5s80,10,92,10S323,706,323,706"/>
<path class="st6" d="M55,748c0,0,46.5-6.5,57.5-6.5s80,10,92,10S259,741,259,741"/>
<path class="st7" d="M1267,484"/>
</svg>
