<?xml version="1.0" standalone="no"?>
<svg
  width="600"
  height="600"
  viewBox="0 0 600 600"
  xmlns="http://www.w3.org/2000/svg"
>
  <g transform="translate(300,300)">
    <path d="M77.5,-124.8C98.4,-107.2,112,-82.2,129.7,-55.7C147.4,-29.1,169.2,-0.8,171.6,28.9C174,58.7,156.9,89.9,131.1,105.8C105.2,121.7,70.6,122.3,34.8,144.8C-1,167.3,-38.1,211.7,-67.2,211.2C-96.2,210.7,-117.3,165.3,-140.4,127.7C-163.5,90.1,-188.6,60.4,-208.3,20.9C-228,-18.6,-242.3,-67.9,-218.9,-92C-195.5,-116.2,-134.5,-115.3,-91.8,-123C-49,-130.6,-24.5,-146.8,1.9,-149.7C28.3,-152.7,56.6,-142.4,77.5,-124.8Z" fill="#8ed1fc" />
  </g>
</svg>
    