<svg xmlns="http://www.w3.org/2000/svg" width="232.108" height="232.089" viewBox="0 0 232.108 232.089">
  <g id="earth" transform="translate(0 0)">
    <path id="Tracé_28" data-name="Tracé 28" d="M101,134.07A83.737,83.737,0,0,1,17.617,57.94c-.226,2.5-.357,5.043-.357,7.608a83.753,83.753,0,1,0,167.506,0c-.009-2.564-.14-5.11-.365-7.618A83.739,83.739,0,0,1,101,134.07Z" transform="translate(15.045 50.497)" fill="#dd738c"/>
    <path id="Tracé_29" data-name="Tracé 29" d="M43.9,154.555a3.743,3.743,0,0,1-3.743-3.182l-2.92-19.84L33.5,102.916a3.743,3.743,0,0,1,2.04-3.837l14.973-7.487L66.868,80.68l7.655-10.725L67.429,58.613H42.854a3.743,3.743,0,0,1-2.62-1.067l-16.4-15.984a3.743,3.743,0,0,1,5.222-5.353L44.37,51.182H69.488a3.743,3.743,0,0,1,3.182,1.759l9.508,15.235a3.743,3.743,0,0,1-.112,4.024L72.558,85.528a3.743,3.743,0,0,1-.973.936L54.459,97.881l-.393.243-12.858,6.457,3.463,25.9,2.957,19.69a3.743,3.743,0,0,1-3.144,4.249Z" transform="translate(19.903 30.741)" fill="#15173f"/>
    <path id="Tracé_30" data-name="Tracé 30" d="M109.823,101.989a3.744,3.744,0,0,1-1.067-.15L90.245,96.224H75.552a3.743,3.743,0,0,1-3.5-2.433L66.343,78.63a3.743,3.743,0,0,1-.243-1.31V63.994a3.743,3.743,0,0,1,3.257-3.743l27.27-3.631,23.564-24.032a3.743,3.743,0,1,1,5.353,5.222L101.213,62.815a3.743,3.743,0,0,1-2.19,1.086L73.587,67.269v9.358l4.567,12.11H90.788a3.743,3.743,0,0,1,1.067.15l17.968,5.465,31.295-9.209a3.746,3.746,0,0,1,2.115,7.187l-32.4,9.508A3.743,3.743,0,0,1,109.823,101.989Z" transform="translate(57.618 27.307)" fill="#2896e0"/>
    <path id="Tracé_31" data-name="Tracé 31" d="M86.821,132.991a3.743,3.743,0,0,1-3.743-3.126L79.558,108.9,66.681,88.633a3.743,3.743,0,0,1,1.31-5.259l13.326-7.618a3.743,3.743,0,0,1,1.872-.487H98.406a3.742,3.742,0,0,1,.749,0l35.73,7.337a3.744,3.744,0,1,1-1.5,7.337L98.013,82.737H84.163l-9.04,5.147,11.23,17.631A3.743,3.743,0,0,1,86.9,106.9l3.743,21.693a3.743,3.743,0,0,1-3.07,4.3Z" transform="translate(57.617 65.594)" fill="#15173f"/>
    <path id="Tracé_32" data-name="Tracé 32" d="M102.751,190.252a87.5,87.5,0,1,1,87.5-87.5,87.5,87.5,0,0,1-87.5,87.5Zm0-167.5a80.05,80.05,0,1,0,0-.019Z" transform="translate(13.293 13.293)" fill="#15173f"/>
    <path id="Tracé_33" data-name="Tracé 33" d="M123.906,71.619a3.743,3.743,0,0,1-3.743-3.743c0-2.845-.112-5.727-.337-8.572a3.755,3.755,0,0,1,7.487-.58c.243,3.032.356,6.12.356,9.153a3.743,3.743,0,0,1-3.762,3.743Z" transform="translate(104.44 48.168)" fill="#b6bdcc"/>
    <path id="Tracé_34" data-name="Tracé 34" d="M123.6,57.358a3.743,3.743,0,0,1-3.612-2.751,108.561,108.561,0,0,0-4.1-12.035,3.743,3.743,0,1,1,6.925-2.826,115.709,115.709,0,0,1,4.38,12.858,3.743,3.743,0,0,1-3.594,4.754Z" transform="translate(100.721 32.483)" fill="#b6bdcc"/>
    <path id="Tracé_35" data-name="Tracé 35" d="M157.327,57.629a3.743,3.743,0,0,1-3.126-1.666A108.427,108.427,0,0,0,63.743,7.487a3.743,3.743,0,1,1,0-7.487,115.913,115.913,0,0,1,96.672,51.827,3.743,3.743,0,0,1-3.088,5.8Z" transform="translate(52.301 0)" fill="#b6bdcc"/>
    <path id="Tracé_36" data-name="Tracé 36" d="M4.511,80.794A3.743,3.743,0,0,1,.768,77.482,117.654,117.654,0,0,1,0,63.743a3.743,3.743,0,1,1,7.487,0,110.244,110.244,0,0,0,.749,12.877A3.743,3.743,0,0,1,4.96,80.776Z" transform="translate(0 52.301)" fill="#b6bdcc"/>
    <path id="Tracé_37" data-name="Tracé 37" d="M12.634,101.793a3.743,3.743,0,0,1-3.387-2.152A115.689,115.689,0,0,1,2.04,79.875,3.743,3.743,0,0,1,9.284,78a108.2,108.2,0,0,0,6.7,18.492A3.743,3.743,0,0,1,12.6,101.83Z" transform="translate(1.703 65.667)" fill="#b6bdcc"/>
    <path id="Tracé_38" data-name="Tracé 38" d="M107.133,150.552A116.049,116.049,0,0,1,11.166,99.766a3.743,3.743,0,1,1,6.126-4.2,108.557,108.557,0,0,0,89.841,47.5,3.743,3.743,0,0,1,0,7.487Z" transform="translate(8.912 81.536)" fill="#b6bdcc"/>
  </g>
</svg>
