<svg xmlns="http://www.w3.org/2000/svg" width="196.078" height="221.314" viewBox="0 0 196.078 221.314">
  <g id="island" transform="translate(0.047 0.038)">
    <path id="Tracé_13" data-name="Tracé 13" d="M137.112,113.488a97.112,97.112,0,0,1-58.521,20.184c-34.928,0-55.221-20.184-55.221-20.184S66.386,100.358,137.112,113.488Z" transform="translate(19.049 87.604)" fill="#dd738c"/>
    <path id="Tracé_14" data-name="Tracé 14" d="M192.268,133.109a3.627,3.627,0,0,1-2.086-.653c-17.1-11.987-53.425-19.713-92.488-19.713-38.536,0-74.643,7.58-91.962,19.314a3.627,3.627,0,1,1-4.062-6C20.4,113.361,57.181,105.49,97.785,105.49c41.112,0,78.161,8.052,96.695,21.036a3.627,3.627,0,0,1-2.086,6.6Z" transform="translate(0 85.845)" fill="#15173f"/>
    <path id="Tracé_15" data-name="Tracé 15" d="M62,166h-.181a3.627,3.627,0,0,1-3.446-3.79c0-.689,2.9-68.912-23.992-104.076a3.629,3.629,0,0,1,5.767-4.407c12.023,15.7,19.948,38.809,23.575,68.713a263.263,263.263,0,0,1,1.813,40.114A3.627,3.627,0,0,1,62,166Z" transform="translate(27.403 42.579)" fill="#15173f"/>
    <path id="Tracé_16" data-name="Tracé 16" d="M61.876,190.633a3.627,3.627,0,0,1-3.627-3.536C58.1,181.8,55.257,57.2,85.542,23.249a3.636,3.636,0,0,1,5.44,4.824c-28.4,31.827-25.5,157.573-25.389,158.843a3.627,3.627,0,0,1-3.627,3.718Z" transform="translate(47.316 17.948)" fill="#15173f"/>
    <path id="Tracé_17" data-name="Tracé 17" d="M23.659,97.137a3.626,3.626,0,0,1-.671,0,3.627,3.627,0,0,1-2.956-4.3c.254-1.306,6.293-32.026,31.1-37.63a3.627,3.627,0,0,1,1.6,7.073c-20,4.552-25.443,31.627-25.443,31.9A3.627,3.627,0,0,1,23.659,97.137Z" transform="translate(16.276 44.889)" fill="#2896e0"/>
    <path id="Tracé_18" data-name="Tracé 18" d="M10.908,70.4a3.627,3.627,0,0,1-2.575-6.184c.254-.254,25.516-25.153,55.674-5.44a3.629,3.629,0,1,1-3.972,6.075c-25.153-16.412-45.7,3.627-46.552,4.516A3.627,3.627,0,0,1,10.908,70.4Z" transform="translate(5.959 41.67)" fill="#2896e0"/>
    <path id="Tracé_19" data-name="Tracé 19" d="M39.581,80.472a3.627,3.627,0,0,1-3.627-3.083c-2.9-19.64,7.744-42.272,8.106-43.215a3.646,3.646,0,0,1,6.565,3.174c-.109.218-10.065,21.617-7.453,39.026a3.627,3.627,0,0,1-3.1,4.062Z" transform="translate(28.88 26.155)" fill="#2896e0"/>
    <path id="Tracé_20" data-name="Tracé 20" d="M53.1,74.937a3.627,3.627,0,0,1-3.3-2.122C40.732,52.867,20.893,46.556,20.784,46.5a3.628,3.628,0,0,1,2.158-6.928c.943.29,23.1,7.4,33.549,30.231A3.627,3.627,0,0,1,53.1,74.937Z" transform="translate(14.871 32.09)" fill="#2896e0"/>
    <path id="Tracé_21" data-name="Tracé 21" d="M39.546,70.559A3.627,3.627,0,0,1,36.3,65.318,39.117,39.117,0,0,1,59.222,45.025a3.627,3.627,0,0,1,1.813,7A31.827,31.827,0,0,0,42.792,68.6a3.627,3.627,0,0,1-3.246,1.959Z" transform="translate(29.26 36.613)" fill="#2896e0"/>
    <path id="Tracé_22" data-name="Tracé 22" d="M101.718,34.279a3.627,3.627,0,0,1-2.793-1.36c-15.27-18.334-52.917-6.819-53.3-6.692A3.631,3.631,0,0,1,43.451,19.3c1.813-.544,42.671-13.075,61.042,8.977a3.627,3.627,0,0,1-2.793,5.948Z" transform="translate(33.316 12.449)" fill="#2896e0"/>
    <path id="Tracé_23" data-name="Tracé 23" d="M90.476,46.511a3.627,3.627,0,0,1-3.518-2.72C80.829,19.979,57.634,6.977,57.4,6.832A3.627,3.627,0,1,1,60.9.484c1.034.58,26.187,14.635,33.1,41.492a3.611,3.611,0,0,1-3.518,4.534Z" transform="translate(45.102 0)" fill="#2896e0"/>
    <path id="Tracé_24" data-name="Tracé 24" d="M107.649,69.148a3.627,3.627,0,0,1-3.627-3.065h0c0-.308-5.15-30.739-28.671-36.977a3.627,3.627,0,0,1,1.813-7.018c11.842,3.174,21.417,11.624,27.91,24.5a69.293,69.293,0,0,1,6.2,18.425,3.627,3.627,0,0,1-3.047,4.135Z" transform="translate(59.23 17.931)" fill="#2896e0"/>
    <path id="Tracé_25" data-name="Tracé 25" d="M76.365,32.122A3.627,3.627,0,0,1,73.482,26.3c10.772-14.127,36-4.9,37.122-4.5a3.63,3.63,0,0,1-2.539,6.8c-5.839-2.194-22.578-6.075-28.816,2.122A3.627,3.627,0,0,1,76.365,32.122Z" transform="translate(59.213 15.06)" fill="#2896e0"/>
    <path id="Tracé_26" data-name="Tracé 26" d="M76.415,60.946A3.622,3.622,0,0,1,72.9,56.412c1.415-5.44,4.244-21.453.29-29.016a3.627,3.627,0,1,1,6.42-3.355c5.948,11.389.889,31.881.29,34.184A3.627,3.627,0,0,1,76.415,60.946Z" transform="translate(59.163 17.863)" fill="#2896e0"/>
    <path id="Tracé_27" data-name="Tracé 27" d="M90.575,100.836A16.938,16.938,0,1,1,107.386,83.9,16.938,16.938,0,0,1,90.575,100.836Zm0-26.622a9.648,9.648,0,1,1,0,.073Z" transform="translate(59.837 54.502)" fill="#b6bdcc"/>
  </g>
</svg>
