<?xml version="1.0" standalone="no"?>
<svg
  width="600"
  height="600"
  viewBox="0 0 600 600"
  xmlns="http://www.w3.org/2000/svg"
>
  <g transform="translate(300,300)">
    <path d="M74.4,-126.8C87,-93.4,81,-58.9,76.7,-34C72.3,-9.1,69.4,6.3,74.8,35C80.2,63.8,93.9,105.9,82.8,125C71.7,144,35.9,140,-3.6,145C-43.1,150,-86.2,164,-121.6,152.8C-156.9,141.6,-184.5,105.3,-204.9,62C-225.4,18.6,-238.7,-31.6,-212.6,-55.8C-186.4,-79.9,-120.8,-78,-78.8,-101.8C-36.8,-125.7,-18.4,-175.3,6.3,-184C31,-192.6,61.9,-160.2,74.4,-126.8Z" fill="#8ed1fc" />
  </g>
</svg>
    