<svg xmlns="http://www.w3.org/2000/svg" width="180.396" height="208.965" viewBox="0 0 180.396 208.965">
  <g id="dolphin" transform="translate(0.013 -0.042)">
    <path id="Tracé_7" data-name="Tracé 7" d="M17.015,102.3c1.686,17.245,9.862,27.157,19.959,33.883a100.859,100.859,0,0,0,14.9,4.316c6.743-6.1,17.869-8.614,25.943-9.626A60.366,60.366,0,0,1,92.6,120s-28.034,0-37.9,12.795c-15.172-6.743-30.343-16.554-32.585-40.643A41.907,41.907,0,0,1,24.364,74.28a43.138,43.138,0,0,0-7.35,28.017Z" transform="translate(11.568 50.907)" fill="#dd738c"/>
    <path id="Tracé_8" data-name="Tracé 8" d="M111.117,65.165S108.083,36.507,67.17,36.507a62.625,62.625,0,0,0-21.51,3.843C37.232,37.333,17.138,31.433,2,36.642a59.2,59.2,0,0,1,12.424,8.226,99.914,99.914,0,0,1,26.129,5.6,62.625,62.625,0,0,1,21.51-3.709c40.93,0,43.947,28.657,43.947,28.657a134.391,134.391,0,0,1,11.446,7.5c6.456,1.062,10.35.371,11.092-3.371S111.117,65.165,111.117,65.165Z" transform="translate(1.381 23.678)" fill="#dd738c"/>
    <path id="Tracé_9" data-name="Tracé 9" d="M144.087,90.865a16.672,16.672,0,0,1-11.345-4.332,10.384,10.384,0,0,0-14.4,0,17.043,17.043,0,0,1-22.69,0,10.384,10.384,0,0,0-14.413,0,17.043,17.043,0,0,1-22.707,0,10.114,10.114,0,0,0-7.164-2.9,3.371,3.371,0,1,1,0-6.743,16.689,16.689,0,0,1,11.345,4.332,10.384,10.384,0,0,0,14.413,0,17.043,17.043,0,0,1,22.69,0,10.384,10.384,0,0,0,14.413,0,17.043,17.043,0,0,1,22.69,0,10.114,10.114,0,0,0,7.164,2.9,3.371,3.371,0,0,1,0,6.743Z" transform="translate(32.924 52.697)" fill="#2896e0"/>
    <path id="Tracé_10" data-name="Tracé 10" d="M88.83,186.7c-3.506,0-10.856-2.04-24.106-13.89C25.3,165.223.009,138.673.009,104.941A73.784,73.784,0,0,1,19.631,56.19c-3.152-5.462-7.569-9.929-17.818-15.172a3.371,3.371,0,0,1,.455-6.187C17.44,29.64,36.353,34.495,47.024,38.2A66.317,66.317,0,0,1,68.534,34.7c22.454,0,34.1,8.429,39.935,15.526a34.625,34.625,0,0,1,7.063,14.312c18.9,11.042,18.037,15.34,17.65,16.975a7.5,7.5,0,0,1-3.523,5.057c-5.664,3.371-16.318.236-33.984-5.057-3.793-1.129-7.872-2.326-12.188-3.557-10.7-3.034-22.218-.3-31.607,7.518A41.149,41.149,0,0,0,37.1,120.433c1.989,21.072,14.565,30.343,28.354,36.85,11.8-11.918,37.609-12.053,38.772-12.053a3.371,3.371,0,0,1,1.5,6.389c-.118,0-11.412,5.748-16.857,13.907-4.484,6.743,3.371,15.306,3.456,15.391a3.371,3.371,0,0,1-1.3,5.462,6.051,6.051,0,0,1-2.191.32ZM88.965,179.956ZM12.618,39.451a38.671,38.671,0,0,1,14.16,15.762,3.371,3.371,0,0,1-.607,3.894c-11.986,12.137-19.42,29.7-19.42,45.835,0,30.6,23.6,54.7,60.13,61.411a3.372,3.372,0,0,1,1.686.826,77.546,77.546,0,0,0,13.671,10.35,16.048,16.048,0,0,1,.961-15.745,41.689,41.689,0,0,1,7.974-8.564c-8.007,1.365-17.582,4.231-22.2,10.249a3.371,3.371,0,0,1-4.046,1.028C49.2,157.469,32.8,146.815,30.369,121.091A47.976,47.976,0,0,1,47.614,80.4c11.126-9.255,24.9-12.474,37.76-8.816,4.349,1.231,8.429,2.444,12.272,3.574,13.1,3.894,25.488,7.552,28.657,5.681a.623.623,0,0,0,.169-.118c-1.6-2.141-8.429-7.147-15.593-11.261a3.371,3.371,0,0,1-1.686-2.545C109.076,65.832,105.822,41.3,68.6,41.3a59.389,59.389,0,0,0-20.347,3.506,3.371,3.371,0,0,1-2.276,0C39.59,42.586,25.3,38.271,12.618,39.451Zm114.057,41.7Z" transform="translate(0 22.303)" fill="#15173f"/>
    <path id="Tracé_11" data-name="Tracé 11" d="M46.957,52.448h-.118a3.371,3.371,0,0,1-3.253-3.489c.337-9.693-1.247-36.243-12.39-42.7A3.371,3.371,0,0,1,34.567.426c16.857,9.794,15.8,47.2,15.745,48.768a3.371,3.371,0,0,1-3.355,3.253Z" transform="translate(20.329 0)" fill="#b6bdcc"/>
    <path id="Tracé_12" data-name="Tracé 12" d="M46.592,33.865a3.371,3.371,0,0,1-3.371-3.371A26.449,26.449,0,0,1,56.606,7.163a3.371,3.371,0,1,1,3,6.035A19.892,19.892,0,0,0,49.964,30.51,3.371,3.371,0,0,1,46.592,33.865Z" transform="translate(29.646 4.609)" fill="#b6bdcc"/>
  </g>
</svg>
