<?xml version="1.0" encoding="utf-8"?>
<!-- Generator: Adobe Illustrator 19.2.1, SVG Export Plug-In . SVG Version: 6.00 Build 0)  -->
<svg version="1.1" id="layer" xmlns="http://www.w3.org/2000/svg" xmlns:xlink="http://www.w3.org/1999/xlink" x="0px" y="0px"
	 viewBox="0 0 652 652" style="enable-background:new 0 0 652 652;" xml:space="preserve">
<style type="text/css">
	.st0{fill:#231F20;}
</style>
<g>
	<path class="st0" d="M131.4,185.5H50.3h-23c-3.6,0-6.5,3.1-6.5,6.9V212v49.4v26.8v76.1c0,3.7,2.8,6.6,6.2,6.6h15.4
		c4.3,0,7.9-3.8,7.9-8.4v-74.4h56c3.2,0,5.8-2.8,5.8-6.2v-13.1c0-4.1-3.1-7.4-6.9-7.4H50.3V212H132c3.2,0,5.8-2.8,5.8-6.2v-13.3
		C137.8,188.6,134.9,185.5,131.4,185.5"/>
	<path class="st0" d="M273.1,205.2v-14.7c0-2.7-2.1-4.9-4.6-4.9H161.1c-3.6,0-6.5,3.1-6.5,7v170.1c0,4.6,3.5,8.3,7.8,8.3h105.4
		c2.9,0,5.2-2.5,5.2-5.6v-17.7c0-3-2.3-5.4-5.1-5.4h-79.3c-1.9,0-3.4-1.6-3.4-3.6V288h71.4c3,0,5.4-2.6,5.4-5.8v-14.5
		c0-3.5-2.7-6.4-5.9-6.4h-70.8V212h81.4C270.2,212,273.1,209,273.1,205.2"/>
	<path class="st0" d="M613.6,371h-18.2c-3,0-5.5-2.6-5.5-5.8V191.8c0-3.4,2.6-6.2,5.8-6.2h19.6c3,0,5.5,2.6,5.5,5.8v171.9
		C620.8,367.5,617.6,371,613.6,371"/>
	<path class="st0" d="M492.9,185.5h-19.4h-10.6H450c-4,0-7.2,3.5-7.2,7.8v169.9c0,4.3,3.3,7.8,7.3,7.8h42.8
		c34.1,0,78.3-19.6,78.3-92.7C571.2,230.4,545.5,185.5,492.9,185.5 M494.8,342.2h-21.4V212h12.1c34.3,0,57,21.8,57,66.2
		C542.6,322.6,517.7,342.2,494.8,342.2"/>
	<path class="st0" d="M415.4,185.5h-21c-2.6,0-4.8,2.3-4.8,5.1v117L327,189.8c-1.4-2.6-4-4.2-6.8-4.2h-20.7c-2.6,0-4.7,2.2-4.7,5
		v175.1c0,2.9,2.2,5.3,4.9,5.3H320c2.6,0,4.8-2.3,4.8-5.1V247.6l64,121.4c0.7,1.2,1.9,2,3.2,2h21.6c3.6,0,6.5-3.1,6.5-6.9V190.4
		C420,187.7,417.9,185.5,415.4,185.5"/>
	<path class="st0" d="M252.9,439.9h-2.7v12.9c0,1.7-0.4,3-1.1,3.8c-0.7,0.8-1.6,1.2-2.7,1.2c-1.2,0-2.2-0.4-2.8-1.3
		c-0.7-0.8-1-2.1-1-3.7v-30.9c0-1.8,0.4-3,1.1-3.8c0.7-0.8,1.9-1.2,3.6-1.2h12.4c1.7,0,3.2,0.1,4.4,0.2c1.2,0.2,2.3,0.5,3.3,0.9
		c1.2,0.5,2.2,1.3,3.1,2.3c0.9,1,1.6,2.1,2.1,3.4c0.5,1.3,0.7,2.7,0.7,4.2c0,3-0.8,5.4-2.4,7.2c-1.6,1.8-4,3.1-7.2,3.8
		c1.3,0.8,2.6,1.9,3.9,3.4c1.2,1.5,2.3,3.1,3.3,4.8c1,1.7,1.7,3.2,2.3,4.6c0.5,1.4,0.8,2.3,0.8,2.8c0,0.5-0.2,1.1-0.5,1.6
		c-0.3,0.5-0.7,0.9-1.3,1.2c-0.5,0.3-1.2,0.5-1.9,0.5c-0.9,0-1.6-0.2-2.2-0.6c-0.6-0.4-1.1-1-1.5-1.6c-0.4-0.7-1-1.6-1.7-2.9l-3-5.4
		c-1.1-2-2.1-3.5-2.9-4.6c-0.9-1-1.7-1.8-2.6-2.1C255.3,440.1,254.2,439.9,252.9,439.9 M257.2,423h-7V434h6.8c1.8,0,3.4-0.2,4.6-0.5
		c1.2-0.3,2.2-0.9,2.9-1.7c0.7-0.8,1-1.9,1-3.4c0-1.1-0.3-2.1-0.8-2.9c-0.5-0.9-1.3-1.5-2.2-1.9C261.6,423.2,259.8,423,257.2,423"/>
	<path class="st0" d="M296.9,416.2c3.9,0,7.2,0.8,10,2.5c2.8,1.7,4.9,4.1,6.3,7.2c1.4,3.1,2.2,6.8,2.2,11c0,3.1-0.4,5.9-1.2,8.5
		c-0.8,2.5-2,4.7-3.5,6.6c-1.6,1.9-3.5,3.3-5.8,4.3c-2.3,1-4.9,1.5-7.9,1.5c-2.9,0-5.6-0.5-7.9-1.5c-2.3-1-4.3-2.4-5.8-4.3
		c-1.6-1.8-2.7-4.1-3.5-6.7c-0.8-2.6-1.2-5.4-1.2-8.4c0-3.1,0.4-5.9,1.2-8.5c0.8-2.6,2-4.8,3.6-6.6c1.6-1.8,3.5-3.2,5.7-4.2
		C291.5,416.7,294.1,416.2,296.9,416.2 M307.7,436.8c0-2.9-0.4-5.5-1.3-7.7c-0.9-2.2-2.2-3.8-3.8-4.9c-1.6-1.1-3.5-1.7-5.7-1.7
		c-1.5,0-2.9,0.3-4.2,0.9c-1.3,0.6-2.4,1.5-3.3,2.7c-0.9,1.2-1.7,2.7-2.2,4.5c-0.5,1.8-0.8,3.9-0.8,6.1c0,2.3,0.3,4.4,0.8,6.2
		c0.5,1.8,1.3,3.4,2.3,4.6c1,1.2,2.1,2.1,3.4,2.7c1.3,0.6,2.7,0.9,4.2,0.9c1.9,0,3.7-0.5,5.4-1.6c1.6-1,2.9-2.7,3.9-4.8
		C307.3,442.7,307.7,440,307.7,436.8"/>
	<path class="st0" d="M334.6,451l-6-25.6v27.8c0,1.5-0.3,2.7-1,3.5c-0.6,0.8-1.5,1.2-2.5,1.2c-1,0-1.9-0.4-2.5-1.1
		c-0.6-0.8-1-1.9-1-3.5v-31.8c0-1.8,0.4-2.9,1.3-3.6s2-0.9,3.5-0.9h2.4c1.4,0,2.4,0.1,3.1,0.4c0.6,0.3,1.1,0.8,1.4,1.5
		c0.3,0.7,0.7,1.9,1.1,3.5l5.5,22l5.5-22c0.4-1.6,0.7-2.8,1.1-3.5c0.3-0.7,0.8-1.2,1.4-1.5c0.6-0.3,1.7-0.4,3.1-0.4h2.4
		c1.5,0,2.6,0.3,3.5,0.9c0.9,0.6,1.3,1.8,1.3,3.6v31.8c0,1.5-0.3,2.7-1,3.5c-0.6,0.8-1.5,1.2-2.6,1.2c-1,0-1.8-0.4-2.5-1.2
		c-0.6-0.8-1-1.9-1-3.5v-27.8l-6,25.6c-0.4,1.7-0.7,2.9-1,3.7c-0.2,0.8-0.7,1.5-1.4,2.1c-0.7,0.6-1.6,1-2.8,1
		c-0.9,0-1.6-0.2-2.3-0.6c-0.6-0.4-1.1-0.9-1.4-1.6c-0.3-0.6-0.6-1.3-0.8-2.1C335,452.6,334.8,451.8,334.6,451"/>
	<path class="st0" d="M389.7,452.5l-1.8-5h-15.3l-1.8,5.2c-0.7,2-1.3,3.4-1.8,4.1c-0.5,0.7-1.3,1.1-2.4,1.1c-1,0-1.8-0.4-2.5-1.1
		c-0.7-0.7-1.1-1.6-1.1-2.6c0-0.5,0.1-1.1,0.3-1.7c0.2-0.6,0.5-1.4,0.8-2.4l9.6-26.1c0.3-0.7,0.6-1.7,1-2.7c0.4-1.1,0.8-1.9,1.2-2.6
		c0.4-0.7,1-1.3,1.7-1.7c0.7-0.4,1.6-0.6,2.6-0.6c1.1,0,1.9,0.2,2.7,0.6c0.7,0.4,1.3,1,1.7,1.7c0.4,0.7,0.8,1.4,1.1,2.2
		c0.3,0.8,0.7,1.8,1.1,3.1l9.8,25.9c0.8,2,1.2,3.4,1.2,4.3c0,0.9-0.4,1.8-1.1,2.6c-0.7,0.8-1.6,1.2-2.6,1.2c-0.6,0-1.1-0.1-1.5-0.3
		c-0.4-0.2-0.8-0.5-1.1-0.9c-0.3-0.4-0.6-1-0.9-1.8C390.2,453.8,390,453.1,389.7,452.5 M374.6,441.3h11.2l-5.7-16.6L374.6,441.3z"/>
</g>
</svg>
